<svg width="147" height="39" viewBox="0 0 147 39" fill="none" xmlns="http://www.w3.org/2000/svg">
<path d="M23.1823 17.967C23.1422 13.7005 26.7121 11.607 26.8726 11.5275C24.8403 8.6125 21.7116 8.215 20.5885 8.17525C17.9813 7.88375 15.4275 9.7255 14.0905 9.7255C12.7133 9.7255 10.6543 8.1885 8.43481 8.2415C5.58692 8.28125 2.91285 9.92425 1.44211 12.4815C-1.59297 17.649 0.666625 25.3075 3.58137 29.5077C5.02537 31.5615 6.7234 33.8802 8.92951 33.7875C11.1089 33.6947 11.9245 32.4095 14.5451 32.4095C17.1389 32.4095 17.8877 33.7743 20.1606 33.7345C22.5004 33.6815 23.9712 31.6543 25.3751 29.574C27.0464 27.2155 27.7283 24.8967 27.755 24.7775C27.7015 24.751 23.2091 23.055 23.1823 17.9405V17.967ZM18.9038 5.406C20.067 3.9485 20.8693 2.00075 20.642 0C18.9573 0.06625 16.8448 1.15275 15.6281 2.5705C14.5584 3.816 13.5824 5.883 13.8364 7.791C15.735 7.9235 17.6871 6.837 18.9172 5.406H18.9038ZM54.6161 33.496H51.581L49.9231 28.3285H44.1337L42.556 33.496H39.6145L45.3237 15.8735H48.8534L54.6027 33.496H54.6161ZM49.4016 26.1423L47.9309 21.5445C47.7571 21.0675 47.4629 19.9545 47.0217 18.232H46.9682C46.7944 18.974 46.5136 20.087 46.1259 21.5445L44.6284 26.1423H49.415H49.4016ZM69.3502 27.0035C69.3502 29.15 68.7619 30.846 67.5853 32.118C66.5157 33.231 65.2188 33.7875 63.6544 33.7875C61.9564 33.7875 60.7531 33.1912 60.0043 31.9855H59.9509V38.6768H57.103V24.9895C57.103 23.6248 57.0628 22.2335 56.996 20.8025H59.5096L59.6701 22.8298H59.7236C60.6595 21.306 62.1302 20.5507 64.0422 20.5507C65.553 20.5507 66.8099 21.1602 67.826 22.3395C68.8288 23.532 69.3369 25.0955 69.3369 27.03L69.3502 27.0035ZM66.4489 27.0962C66.4489 25.8507 66.1547 24.8438 65.5931 24.0487C64.9781 23.1875 64.1491 22.7767 63.1063 22.7767C62.411 22.7767 61.7692 23.0153 61.1943 23.479C60.6194 23.9428 60.2584 24.539 60.0712 25.2942C59.991 25.652 59.9375 25.9302 59.9375 26.1555V28.2755C59.9375 29.203 60.2316 29.998 60.8066 30.6207C61.3681 31.2567 62.1169 31.5747 63.026 31.5747C64.0957 31.5747 64.938 31.1772 65.5397 30.3557C66.1413 29.5342 66.4355 28.4478 66.4355 27.1095L66.4489 27.0962ZM84.1111 27.0035C84.1111 29.15 83.5228 30.846 82.3329 32.118C81.29 33.231 79.9663 33.7875 78.402 33.7875C76.7173 33.7875 75.5006 33.1912 74.7652 31.9855H74.7251V38.6768H71.8772V24.9895C71.8772 23.6248 71.8371 22.2335 71.7703 20.8025H74.2705L74.431 22.8298H74.4844C75.4204 21.306 76.8644 20.5507 78.8031 20.5507C80.3139 20.5507 81.5841 21.1602 82.5869 22.3395C83.603 23.532 84.1111 25.0955 84.1111 27.03V27.0035ZM81.2097 27.0962C81.2097 25.8507 80.9423 24.8438 80.354 24.0487C79.7256 23.1875 78.91 22.7767 77.8671 22.7767C77.1585 22.7767 76.5301 23.0153 75.9552 23.479C75.3936 23.9428 75.0193 24.539 74.8454 25.2942C74.7518 25.652 74.7117 25.9302 74.7117 26.1555V28.2755C74.7117 29.203 74.9791 29.998 75.5674 30.6207C76.1557 31.2567 76.9045 31.5747 77.8137 31.5747C78.8833 31.5747 79.7256 31.1772 80.3273 30.3557C80.9156 29.5342 81.2231 28.4478 81.2231 27.1095L81.2097 27.0962ZM100.61 28.5537C100.61 30.051 100.075 31.27 99.0324 32.224C97.8692 33.2443 96.2514 33.761 94.179 33.761C92.267 33.761 90.7294 33.4033 89.5662 32.6613L90.2347 30.3027C91.4782 31.0448 92.8553 31.4158 94.3528 31.4158C95.4224 31.4158 96.2648 31.1772 96.8664 30.7002C97.4547 30.2232 97.7623 29.574 97.7623 28.779C97.7623 28.0635 97.5216 27.454 97.0269 26.9637C96.5455 26.4735 95.7166 26.0363 94.5801 25.599C91.4648 24.4463 89.9005 22.7635 89.9005 20.564C89.9005 19.1065 90.4353 17.914 91.545 16.9865C92.6147 16.059 94.0854 15.5953 95.9038 15.5953C97.535 15.5953 98.872 15.8603 99.955 16.43L99.2196 18.7488C98.2035 18.2188 97.0804 17.9538 95.8102 17.9538C94.8074 17.9538 94.0186 18.179 93.457 18.6692C92.9623 19.1197 92.735 19.6498 92.735 20.2858C92.735 20.9748 93.0024 21.5577 93.5372 22.0082C94.0185 22.4322 94.8743 22.8827 96.1311 23.373C97.6687 23.9825 98.8051 24.698 99.5138 25.5195C100.236 26.3145 100.583 27.348 100.583 28.567L100.61 28.5537ZM110.05 22.896H106.894V29.0837C106.894 30.6472 107.429 31.429 108.552 31.429C109.06 31.429 109.488 31.3892 109.822 31.2965L109.903 33.443C109.328 33.655 108.592 33.761 107.67 33.761C106.547 33.761 105.664 33.4165 105.022 32.7407C104.394 32.0783 104.086 30.9122 104.086 29.2957V22.9093H102.215V20.7892H104.086V18.4705L106.894 17.6358V20.8158H110.023V22.9358L110.05 22.896ZM124.222 27.0432C124.222 28.991 123.647 30.5942 122.524 31.853C121.321 33.1382 119.77 33.7875 117.818 33.7875C115.946 33.7875 114.448 33.1647 113.339 31.9325C112.216 30.7002 111.654 29.15 111.654 27.2553C111.654 25.2678 112.216 23.6513 113.392 22.3925C114.529 21.147 116.066 20.511 118.032 20.511C119.904 20.511 121.428 21.147 122.578 22.366C123.647 23.585 124.209 25.1485 124.209 27.0432H124.222ZM121.254 27.136C121.254 25.9435 120.987 24.9497 120.492 24.115C119.904 23.0947 119.048 22.5912 117.952 22.5912C116.802 22.5912 115.919 23.0947 115.331 24.115C114.796 24.9497 114.569 25.97 114.569 27.189C114.569 28.355 114.809 29.362 115.331 30.1967C115.946 31.2302 116.802 31.7337 117.911 31.7337C119.008 31.7337 119.863 31.2037 120.479 30.1835C120.987 29.3222 121.254 28.302 121.254 27.136ZM133.475 23.267C133.207 23.214 132.886 23.1875 132.579 23.1875C131.576 23.1875 130.8 23.585 130.252 24.3137C129.798 24.9762 129.557 25.8242 129.557 26.8312V33.496H126.709L126.736 24.7908C126.736 23.3333 126.696 22.0082 126.629 20.7892H129.089L129.196 23.2405H129.276C129.584 22.3925 130.052 21.73 130.707 21.2132C131.335 20.7627 132.017 20.5507 132.766 20.5507C133.033 20.5507 133.247 20.5508 133.461 20.5905V23.2803L133.475 23.267ZM146.23 26.5397C146.23 27.0432 146.19 27.4672 146.123 27.825H137.566C137.606 29.0837 138.02 30.0377 138.809 30.7002C139.545 31.2832 140.481 31.5747 141.617 31.5747C142.887 31.5747 144.024 31.376 145.093 30.9785L145.521 32.966C144.318 33.4695 142.874 33.7345 141.243 33.7345C139.237 33.7345 137.673 33.1515 136.536 32.012C135.4 30.8195 134.838 29.2825 134.838 27.3347C134.838 25.4135 135.373 23.8102 136.416 22.5382C137.539 21.1867 139.037 20.4978 140.922 20.4978C142.767 20.4978 144.171 21.1602 145.12 22.525C145.882 23.6115 146.27 24.9365 146.27 26.5265L146.23 26.5397ZM143.502 25.811C143.529 24.9762 143.342 24.2475 142.967 23.638C142.459 22.843 141.697 22.4455 140.695 22.4455C139.759 22.4455 138.996 22.843 138.422 23.6115C137.94 24.221 137.659 24.9365 137.566 25.811H143.502ZM48.4791 5.0085C48.4791 6.5985 48.0111 7.75125 47.0618 8.54625C46.1794 9.275 44.9226 9.63275 43.3181 9.63275C42.5159 9.63275 41.8474 9.57975 41.2858 9.50025V1.0335C42.0212 0.901 42.8234 0.86125 43.6925 0.86125C45.2301 0.86125 46.3666 1.1925 47.1688 1.84175C48.0245 2.58375 48.4657 3.64375 48.4657 5.02175L48.4791 5.0085ZM47.0083 5.0615C47.0083 4.0545 46.7409 3.27275 46.2061 2.7295C45.6446 2.1995 44.8691 1.9345 43.8262 1.9345C43.385 1.9345 43.024 1.9345 42.6897 2.014V8.5065C42.8635 8.5065 43.1844 8.533 43.6256 8.533C44.6953 8.533 45.5376 8.22825 46.1259 7.64525C46.6874 7.03575 46.9816 6.18775 46.9816 5.04825L47.0083 5.0615ZM56.3007 6.3865C56.3007 7.3405 56.0333 8.1355 55.4985 8.745C54.8968 9.381 54.1347 9.699 53.1721 9.699C52.2361 9.699 51.5141 9.39425 50.966 8.7715C50.4311 8.17525 50.1637 7.40675 50.1637 6.47925C50.1637 5.52525 50.4311 4.75675 51.0061 4.12075C51.5676 3.51125 52.3431 3.19325 53.279 3.19325C54.215 3.19325 54.9637 3.498 55.5253 4.12075C56.0601 4.70375 56.3275 5.44575 56.3275 6.39975L56.3007 6.3865ZM54.8567 6.42625C54.8567 5.8565 54.723 5.36625 54.4824 4.94225C54.1882 4.452 53.7737 4.20025 53.2256 4.20025C52.664 4.20025 52.2361 4.43875 51.942 4.929C51.6746 5.3265 51.5676 5.8565 51.5676 6.4395C51.5676 6.996 51.7013 7.4995 51.942 7.897C52.2495 8.4005 52.664 8.65225 53.2122 8.65225C53.747 8.65225 54.1481 8.38725 54.4556 7.897C54.723 7.473 54.8567 6.9695 54.8567 6.39975V6.42625ZM66.8232 3.3125L64.8444 9.54H63.5475L62.7453 6.85025C62.518 6.148 62.3441 5.4855 62.2104 4.80975C62.0767 5.49875 61.9029 6.1745 61.6756 6.837L60.8199 9.52675H59.5096L57.6645 3.29925H59.1085L59.8305 6.254C60.0043 6.95625 60.1514 7.61875 60.2717 8.2415C60.4054 7.738 60.5659 7.0755 60.8066 6.254L61.7024 3.286H62.8522L63.7079 6.201C63.9085 6.9165 64.0823 7.6055 64.216 8.25475H64.2427C64.3363 7.61875 64.4834 6.92975 64.6706 6.201L65.4461 3.286H66.8098L66.8232 3.3125ZM74.0833 9.55325H72.6794V5.97575C72.6794 4.876 72.2516 4.33275 71.4093 4.33275C71.0081 4.33275 70.6605 4.46525 70.3931 4.77C70.1257 5.07475 69.992 5.4325 69.992 5.83V9.54H68.6015V5.088C68.6015 4.5315 68.6015 3.93525 68.5614 3.29925H69.8048L69.8583 4.2665H69.8984C70.0589 3.975 70.2995 3.7365 70.6204 3.5245C71.0215 3.2595 71.4226 3.1535 71.904 3.1535C72.4923 3.1535 72.9736 3.339 73.3747 3.72325C73.856 4.187 74.0967 4.876 74.0967 5.79025V9.54L74.0833 9.55325ZM77.9607 9.55325H76.5435V0.4505H77.9474L77.9607 9.55325ZM86.1969 6.3865C86.1969 7.3405 85.9295 8.1355 85.3679 8.745C84.7796 9.381 84.0309 9.699 83.0549 9.699C82.1457 9.699 81.4103 9.39425 80.8621 8.7715C80.3273 8.17525 80.0331 7.40675 80.0331 6.47925C80.0331 5.52525 80.3006 4.75675 80.8889 4.12075C81.4504 3.51125 82.2259 3.19325 83.1618 3.19325C84.0977 3.19325 84.8331 3.498 85.408 4.12075C85.9428 4.70375 86.2103 5.44575 86.2103 6.39975L86.1969 6.3865ZM84.7262 6.42625C84.7262 5.8565 84.6192 5.36625 84.3651 4.94225C84.0576 4.452 83.6432 4.20025 83.095 4.20025C82.5334 4.20025 82.1056 4.43875 81.8114 4.929C81.544 5.3265 81.4103 5.8565 81.4103 6.4395C81.4103 6.996 81.544 7.4995 81.8114 7.897C82.1056 8.4005 82.52 8.65225 83.0682 8.65225C83.603 8.65225 84.0042 8.38725 84.325 7.897C84.5924 7.473 84.7262 6.9695 84.7262 6.39975V6.42625ZM92.9757 9.55325H91.7188L91.5851 8.83775H91.5584C91.1305 9.39425 90.5155 9.68575 89.7267 9.68575C89.1384 9.68575 88.657 9.50025 88.296 9.116C87.9618 8.798 87.8013 8.36075 87.8013 7.85725C87.8013 7.102 88.1222 6.53225 88.764 6.10825C89.4058 5.71075 90.315 5.512 91.4916 5.52525V5.39275C91.4916 4.57125 91.0503 4.1605 90.1813 4.1605C89.5528 4.1605 89.0047 4.3195 88.5367 4.62425L88.2693 3.69675C88.8442 3.35225 89.5662 3.16675 90.4086 3.16675C92.0665 3.16675 92.8954 4.028 92.8954 5.7505V8.056C92.8954 8.692 92.9222 9.1955 92.989 9.55325H92.9757ZM91.5049 7.40675V6.47925C89.9807 6.4395 89.2052 6.85025 89.2052 7.72475C89.2052 8.04275 89.2988 8.2945 89.4726 8.4535C89.6598 8.586 89.9005 8.67875 90.1679 8.67875C90.4754 8.67875 90.7696 8.586 91.0236 8.38725C91.291 8.20175 91.4514 7.95 91.5183 7.6585V7.3935L91.5049 7.40675ZM100.931 9.55325H99.6876L99.6341 8.5595H99.6074C99.2063 9.31475 98.5377 9.699 97.5751 9.699C96.813 9.699 96.1846 9.4075 95.7032 8.81125C95.1684 8.215 94.9277 7.45975 94.9277 6.50575C94.9277 5.49875 95.1951 4.67725 95.7567 4.0545C96.2915 3.4715 96.9199 3.18 97.6954 3.18C98.5377 3.18 99.1394 3.445 99.4737 4.028H99.5004V0.4505H100.904V7.8705C100.904 8.48 100.904 9.0365 100.944 9.55325H100.931ZM99.487 6.92975V5.86975C99.487 5.6975 99.487 5.55175 99.4469 5.44575C99.3667 5.1145 99.1795 4.823 98.9389 4.59775C98.6714 4.35925 98.3505 4.25325 98.0029 4.25325C97.4681 4.25325 97.067 4.452 96.7595 4.86275C96.4653 5.26025 96.3049 5.79025 96.3049 6.45275C96.3049 7.06225 96.4386 7.56575 96.7327 7.95C97.0403 8.3475 97.4547 8.57275 97.9628 8.57275C98.1771 8.57905 98.3898 8.53419 98.5829 8.44195C98.7761 8.34971 98.944 8.21279 99.0725 8.04275C99.34 7.738 99.4737 7.35375 99.4737 6.90325L99.487 6.92975ZM112.924 6.3865C112.924 7.3405 112.657 8.1355 112.095 8.745C111.507 9.381 110.758 9.699 109.782 9.699C108.846 9.699 108.124 9.39425 107.576 8.7715C107.041 8.17525 106.747 7.40675 106.747 6.47925C106.747 5.52525 107.015 4.75675 107.603 4.12075C108.164 3.51125 108.94 3.19325 109.876 3.19325C110.812 3.19325 111.56 3.498 112.122 4.12075C112.657 4.70375 112.924 5.44575 112.924 6.39975V6.3865ZM111.454 6.42625C111.454 5.8565 111.347 5.36625 111.093 4.94225C110.798 4.452 110.384 4.20025 109.836 4.20025C109.274 4.20025 108.846 4.43875 108.552 4.929C108.285 5.3265 108.178 5.8565 108.178 6.4395C108.178 6.996 108.311 7.4995 108.552 7.897C108.86 8.4005 109.274 8.65225 109.822 8.65225C110.357 8.65225 110.785 8.38725 111.079 7.897C111.347 7.473 111.48 6.9695 111.48 6.39975L111.454 6.42625ZM120.452 9.55325H119.061V5.97575C119.061 4.876 118.633 4.33275 117.791 4.33275C117.35 4.33275 117.016 4.46525 116.762 4.77C116.494 5.07475 116.36 5.4325 116.36 5.83V9.54H114.997V5.088C114.997 4.5315 114.97 3.93525 114.93 3.29925H116.16L116.227 4.2665H116.267C116.427 3.975 116.668 3.7365 116.989 3.5245C117.363 3.2595 117.791 3.1535 118.246 3.1535C118.834 3.1535 119.315 3.339 119.716 3.72325C120.198 4.187 120.438 4.876 120.438 5.79025V9.54L120.452 9.55325ZM129.891 4.346H128.34V7.3935C128.34 8.162 128.608 8.54625 129.143 8.54625C129.41 8.54625 129.624 8.51975 129.784 8.48L129.824 9.54C129.53 9.63275 129.156 9.6725 128.715 9.6725C128.18 9.6725 127.739 9.5135 127.418 9.18225C127.11 8.851 126.95 8.2945 126.95 7.4995V4.346H126.014L126.041 3.3125H126.95V2.15975L128.327 1.76225V3.286H129.878V4.3195L129.891 4.346ZM137.298 9.55325H135.895V6.00225C135.895 4.88925 135.493 4.3195 134.638 4.3195C133.969 4.3195 133.528 4.65075 133.301 5.3C133.234 5.4325 133.22 5.60475 133.22 5.8035V9.55325H131.817V0.4505H133.207V4.2135H133.234C133.675 3.5245 134.303 3.18 135.106 3.18C135.707 3.18 136.175 3.3655 136.576 3.74975C137.044 4.2135 137.272 4.91575 137.272 5.84325V9.55325H137.298ZM144.946 6.13475C144.946 6.39975 144.946 6.5985 144.906 6.77075H140.708C140.708 7.38025 140.922 7.85725 141.31 8.17525C141.671 8.44025 142.112 8.59925 142.687 8.59925C143.315 8.59925 143.89 8.5065 144.398 8.30775L144.612 9.275C144.024 9.54 143.315 9.6725 142.5 9.6725C141.523 9.6725 140.761 9.381 140.2 8.81125C139.638 8.2415 139.371 7.48625 139.371 6.50575C139.371 5.57825 139.638 4.78325 140.146 4.1605C140.681 3.498 141.417 3.1535 142.352 3.1535C143.248 3.1535 143.957 3.51125 144.411 4.17375C144.772 4.70375 144.946 5.36625 144.946 6.13475ZM143.609 5.777C143.636 5.3795 143.542 5.0085 143.342 4.717C143.101 4.3195 142.74 4.134 142.232 4.134C141.778 4.134 141.403 4.3195 141.122 4.70375C140.882 4.99525 140.748 5.36625 140.721 5.76375H143.623L143.609 5.777Z" fill="white"/>
</svg>
